<svg width="24" height="24" viewBox="0 0 24 24" fill="none" xmlns="http://www.w3.org/2000/svg">
<path d="M16.7333 0H7.28C3.26667 0 0 3.25333 0 7.25333V16.7467C0 20.7467 3.26667 24 7.28 24H16.72C20.7467 24 24 20.7467 24 16.7467V7.25333C24.0133 3.25333 20.7467 0 16.7333 0ZM22 17.3333C22 19.9067 19.9067 22 17.3333 22H6.66667C4.09333 22 2 19.9067 2 17.3333V6.66667C2 4.09333 4.09333 2 6.66667 2H17.3333C19.9067 2 22 4.09333 22 6.66667V17.3333Z" fill="#CC9933"/>
<path d="M18.4934 7.13323C19.296 7.13323 19.9467 6.48255 19.9467 5.6799C19.9467 4.87724 19.296 4.22656 18.4934 4.22656C17.6907 4.22656 17.04 4.87724 17.04 5.6799C17.04 6.48255 17.6907 7.13323 18.4934 7.13323Z" fill="#CC9933"/>
<path d="M12.04 5.93335C8.64003 5.93335 5.8667 8.68002 5.8667 12.0667C5.8667 15.4667 8.6267 18.2134 12.04 18.2134C15.4534 18.2134 18.2134 15.4654 18.2134 12.0667C18.2 8.68002 15.44 5.93335 12.04 5.93335ZM12.1067 16C9.89337 16 8.1067 14.2134 8.1067 12.0134C8.1067 9.81335 9.89337 8.02668 12.1067 8.02668C14.32 8.02668 16.1067 9.81335 16.1067 12.0134C16.1067 14.2134 14.32 16 12.1067 16Z" fill="#CC9933"/>
</svg>
