<svg width="30" height="24" viewBox="0 0 30 24" fill="none" xmlns="http://www.w3.org/2000/svg">
<path d="M29.5304 2.8546C28.446 3.32873 27.2762 3.65685 26.054 3.80614C27.3058 3.05147 28.2622 1.86862 28.715 0.459361C27.5453 1.1484 26.2509 1.65534 24.8695 1.91948C23.7638 0.73826 22.1904 0 20.4482 0C17.0997 0 14.3895 2.72336 14.3895 6.07013C14.3895 6.5459 14.4436 7.00362 14.5486 7.44658C9.50714 7.18573 5.04641 4.78884 2.05728 1.11395C1.53558 1.99986 1.23699 3.05147 1.23699 4.16542C1.23699 6.267 2.30501 8.12086 3.93246 9.20364C2.93663 9.16918 2.0015 8.90669 1.18614 8.44733V8.51295C1.18614 11.4479 3.27623 13.9088 6.04717 14.4699C5.53859 14.5995 5.00212 14.6651 4.45089 14.6651C4.06043 14.6651 3.68309 14.6323 3.31068 14.5683C4.08504 16.9783 6.3195 18.7337 8.97231 18.783C6.89863 20.3907 4.28519 21.3587 1.44699 21.3587C0.956456 21.3587 0.475767 21.3423 0 21.2766C2.68234 22.9992 5.8667 24 9.28895 24C20.4317 24 26.5281 14.7652 26.5281 6.77394C26.5281 6.51145 26.5216 6.24896 26.5068 5.98647C27.6913 5.13337 28.7167 4.06535 29.5304 2.8546Z" fill="#CC9933"/>
</svg>
